<svg xmlns="http://www.w3.org/2000/svg" viewBox="0 0 512 512" width="512" height="512">
  <!-- Background -->
  <rect width="512" height="512" rx="64" fill="#4A90E2"/>

  <!-- Sun -->
  <circle cx="256" cy="180" r="60" fill="#FFD700"/>
  <g stroke="#FFD700" stroke-width="8" stroke-linecap="round">
    <line x1="256" y1="80" x2="256" y2="100"/>
    <line x1="256" y1="260" x2="256" y2="280"/>
    <line x1="356" y1="180" x2="376" y2="180"/>
    <line x1="136" y1="180" x2="156" y2="180"/>
    <line x1="326" y1="110" x2="340" y2="96"/>
    <line x1="172" y1="264" x2="186" y2="250"/>
    <line x1="326" y1="250" x2="340" y2="264"/>
    <line x1="172" y1="96" x2="186" y2="110"/>
  </g>

  <!-- Cloud -->
  <path d="M 140 290 Q 140 260 170 260 Q 180 240 210 240 Q 230 230 250 240 Q 280 230 300 250 Q 330 250 340 270 Q 360 270 360 300 Q 360 330 330 330 L 170 330 Q 140 330 140 300 Q 140 290 140 290 Z" fill="#FFFFFF" opacity="0.9"/>

  <!-- T-shirt icon -->
  <g fill="#FFFFFF">
    <path d="M 200 360 L 180 380 L 180 460 L 220 460 L 220 400 L 292 400 L 292 460 L 332 460 L 332 380 L 312 360 L 300 370 Q 290 360 256 360 Q 222 360 212 370 Z"/>
  </g>
</svg>
